<?xml version="1.0" encoding="utf-8"?>
<!-- Generator: Adobe Illustrator 19.0.0, SVG Export Plug-In . SVG Version: 6.00 Build 0)  -->
<svg version="1.1" id="Layer_1" xmlns="http://www.w3.org/2000/svg" xmlns:xlink="http://www.w3.org/1999/xlink" x="0px" y="0px"
	 viewBox="0 0 200 200" style="enable-background:new 0 0 200 200;" xml:space="preserve">
<style type="text/css">
	.st0{fill:#FFFFFF;}
</style>
<g id="XMLID_4_">
	<path id="XMLID_34_" class="st0" d="M43.4,83.3c2.5,0,4.7,0.5,6.2,1.3l1-3.2c-1-0.5-3.5-1.4-7.3-1.4c-9.5,0-16,6.5-16,16.1
		c0,10.1,6.5,15.5,15.2,15.5c3.7,0,6.6-0.7,8.1-1.5l-0.8-3.1c-1.6,0.8-4.1,1.3-6.5,1.3c-7.5,0-11.8-4.8-11.8-12.3
		C31.4,87.9,36.2,83.3,43.4,83.3z"/>
	<rect id="XMLID_35_" x="55.3" y="78.9" class="st0" width="4" height="32.3"/>
	<path id="XMLID_36_" class="st0" d="M84.5,89.2h-4v13.5c0,0.7-0.1,1.5-0.4,2c-0.7,1.8-2.6,3.6-5.3,3.6c-3.6,0-4.9-2.8-4.9-7V89.2
		h-4V102c0,7.7,4.1,9.6,7.6,9.6c3.9,0,6.2-2.3,7.3-4.1h0.1l0.2,3.6h3.6c-0.1-1.7-0.2-3.7-0.2-6V89.2z"/>
	<path id="XMLID_39_" class="st0" d="M102.7,88.7c-3.6,0-6.1,1.6-7.5,4.1h-0.1V78.9h-4v26.6c0,2-0.1,4.2-0.2,5.7h3.5l0.2-3.6h0.1
		c1.6,2.9,4.2,4.1,7.4,4.1c4.9,0,9.9-3.9,9.9-11.8C112,93.2,108.2,88.7,102.7,88.7z M101.3,108.5c-2.9,0-5.2-1.9-6-4.7
		c-0.1-0.5-0.2-1-0.2-1.5v-4c0-0.6,0.1-1.2,0.2-1.6c0.8-3,3.4-4.9,6.1-4.9c4.3,0,6.6,3.8,6.6,8.2C108,105.1,105.5,108.5,101.3,108.5
		z"/>
	<path id="XMLID_40_" class="st0" d="M124.1,98.4c-2.9-1.1-4.2-1.9-4.2-3.7c0-1.6,1.3-3,3.7-3c2,0,3.6,0.7,4.5,1.3l1-2.9
		c-1.2-0.7-3.2-1.4-5.4-1.4c-4.7,0-7.6,2.9-7.6,6.5c0,2.6,1.9,4.8,5.8,6.2c3,1.1,4.1,2.1,4.1,4.1c0,1.8-1.4,3.3-4.3,3.3
		c-2,0-4.1-0.8-5.3-1.6l-1,3c1.5,0.9,3.8,1.5,6.2,1.5c5.2,0,8.2-2.7,8.2-6.6C129.9,101.8,128,99.9,124.1,98.4z"/>
	<path id="XMLID_41_" class="st0" d="M136.4,94.2c-0.8,0-1.4,0.5-1.4,1.3c0,0.7,0.5,1.2,1.3,1.2c0.9,0,1.4-0.5,1.4-1.2
		C137.8,94.8,137.2,94.2,136.4,94.2z"/>
	<rect id="XMLID_42_" x="135.3" y="98.6" class="st0" width="2.2" height="11.1"/>
	<path id="XMLID_43_" class="st0" d="M147.1,98.3c-2,0-3.4,1-4,2.1h0l-0.1-1.8H141c0.1,0.9,0.1,1.9,0.1,3v8.1h2.2V103
		c0-0.3,0-0.7,0.1-0.9c0.4-1.1,1.5-2.1,2.9-2.1c2.1,0,2.8,1.5,2.8,3.3v6.4h2.2v-6.6C151.4,99.3,148.8,98.3,147.1,98.3z"/>
	<path id="XMLID_44_" class="st0" d="M157.3,98c0-1.7,0.5-3.2,2.3-3.2c0.6,0,1.1,0.1,1.4,0.3l0.3-1.6c-0.4-0.2-1.1-0.3-1.9-0.3
		c-1,0-2.1,0.3-2.9,1c-1,0.9-1.4,2.3-1.4,3.9v0.5h-1.7v1.5h1.7v9.6h2.2v-9.6h2.9v-1.5h-2.9V98z"/>
	<path id="XMLID_47_" class="st0" d="M167,98.3c-3.3,0-6,2.2-6,5.9c0,3.5,2.5,5.7,5.8,5.7c2.9,0,6-1.8,6-5.9
		C172.8,100.7,170.4,98.3,167,98.3z M168.8,108.7h-3.7c-0.6,0-1.2-0.3-1.5-0.8l-1.9-3.2c-0.3-0.5-0.3-1,0-1.5l1.9-3.2
		c0.3-0.5,0.8-0.8,1.5-0.8h3.7c0.6,0,1.2,0.3,1.5,0.8l1.9,3.2c0.3,0.5,0.3,1,0,1.5l-1.9,3.2C170,108.4,169.4,108.7,168.8,108.7z"/>
</g>
</svg>
